<mxfile host="app.diagrams.net" agent="Mozilla/5.0 (Windows NT 10.0; Win64; x64) AppleWebKit/537.36 (KHTML, like Gecko) Chrome/131.0.0.0 Safari/537.36" version="25.0.3">
  <diagram name="Страница-1" id="KETgS1tpW_YvmkzqTWbb">
    <mxGraphModel dx="2215" dy="565" grid="1" gridSize="10" guides="1" tooltips="1" connect="1" arrows="1" fold="1" page="1" pageScale="1" pageWidth="827" pageHeight="1169" math="0" shadow="0">
      <root>
        <mxCell id="0" />
        <mxCell id="1" parent="0" />
        <mxCell id="0ilPhX3dVnPTbfWXhvVX-68" style="edgeStyle=orthogonalEdgeStyle;rounded=0;orthogonalLoop=1;jettySize=auto;html=1;exitX=1;exitY=0.5;exitDx=0;exitDy=0;entryX=0;entryY=0.5;entryDx=0;entryDy=0;" parent="1" source="9YZk1W5Ex02Vy-4h8HQt-1" target="qk6u6zay9Sdp_NsE3O6V-16" edge="1">
          <mxGeometry relative="1" as="geometry">
            <mxPoint x="550" y="232.5" as="targetPoint" />
          </mxGeometry>
        </mxCell>
        <mxCell id="0ilPhX3dVnPTbfWXhvVX-70" style="edgeStyle=orthogonalEdgeStyle;rounded=0;orthogonalLoop=1;jettySize=auto;html=1;exitX=0;exitY=0.5;exitDx=0;exitDy=0;entryX=1;entryY=0.5;entryDx=0;entryDy=0;" parent="1" source="9YZk1W5Ex02Vy-4h8HQt-1" target="0ilPhX3dVnPTbfWXhvVX-20" edge="1">
          <mxGeometry relative="1" as="geometry" />
        </mxCell>
        <mxCell id="Enc4yDkgC8fSXYZV9E1_-4" style="edgeStyle=orthogonalEdgeStyle;rounded=0;orthogonalLoop=1;jettySize=auto;html=1;exitX=1;exitY=0.75;exitDx=0;exitDy=0;entryX=0;entryY=0.5;entryDx=0;entryDy=0;" edge="1" parent="1" source="9YZk1W5Ex02Vy-4h8HQt-1" target="9YZk1W5Ex02Vy-4h8HQt-121">
          <mxGeometry relative="1" as="geometry" />
        </mxCell>
        <mxCell id="9YZk1W5Ex02Vy-4h8HQt-1" value="User" style="rounded=0;whiteSpace=wrap;html=1;" parent="1" vertex="1">
          <mxGeometry x="320" y="240" width="120" height="60" as="geometry" />
        </mxCell>
        <mxCell id="9YZk1W5Ex02Vy-4h8HQt-46" style="edgeStyle=orthogonalEdgeStyle;rounded=0;orthogonalLoop=1;jettySize=auto;html=1;exitX=0;exitY=0;exitDx=0;exitDy=0;exitPerimeter=0;entryX=1;entryY=0.5;entryDx=0;entryDy=0;" parent="1" source="9YZk1W5Ex02Vy-4h8HQt-2" target="9YZk1W5Ex02Vy-4h8HQt-41" edge="1">
          <mxGeometry relative="1" as="geometry" />
        </mxCell>
        <mxCell id="9YZk1W5Ex02Vy-4h8HQt-47" style="edgeStyle=orthogonalEdgeStyle;rounded=0;orthogonalLoop=1;jettySize=auto;html=1;exitX=0;exitY=0;exitDx=0;exitDy=15;exitPerimeter=0;entryX=1;entryY=0.5;entryDx=0;entryDy=0;" parent="1" source="9YZk1W5Ex02Vy-4h8HQt-2" target="9YZk1W5Ex02Vy-4h8HQt-42" edge="1">
          <mxGeometry relative="1" as="geometry" />
        </mxCell>
        <mxCell id="9YZk1W5Ex02Vy-4h8HQt-48" style="edgeStyle=orthogonalEdgeStyle;rounded=0;orthogonalLoop=1;jettySize=auto;html=1;exitX=0;exitY=0;exitDx=0;exitDy=45;exitPerimeter=0;entryX=1;entryY=0.5;entryDx=0;entryDy=0;" parent="1" source="9YZk1W5Ex02Vy-4h8HQt-2" target="9YZk1W5Ex02Vy-4h8HQt-43" edge="1">
          <mxGeometry relative="1" as="geometry" />
        </mxCell>
        <mxCell id="9YZk1W5Ex02Vy-4h8HQt-49" style="edgeStyle=orthogonalEdgeStyle;rounded=0;orthogonalLoop=1;jettySize=auto;html=1;exitX=0;exitY=1;exitDx=0;exitDy=0;exitPerimeter=0;entryX=1;entryY=0.5;entryDx=0;entryDy=0;" parent="1" source="9YZk1W5Ex02Vy-4h8HQt-2" target="9YZk1W5Ex02Vy-4h8HQt-44" edge="1">
          <mxGeometry relative="1" as="geometry" />
        </mxCell>
        <mxCell id="9YZk1W5Ex02Vy-4h8HQt-120" style="edgeStyle=orthogonalEdgeStyle;rounded=0;orthogonalLoop=1;jettySize=auto;html=1;exitX=0;exitY=0;exitDx=25;exitDy=60;exitPerimeter=0;entryX=1;entryY=0.5;entryDx=0;entryDy=0;" parent="1" source="9YZk1W5Ex02Vy-4h8HQt-2" target="9YZk1W5Ex02Vy-4h8HQt-119" edge="1">
          <mxGeometry relative="1" as="geometry" />
        </mxCell>
        <mxCell id="9YZk1W5Ex02Vy-4h8HQt-2" value="" style="verticalLabelPosition=bottom;verticalAlign=top;html=1;shape=mxgraph.basic.frame;dx=10;whiteSpace=wrap;" parent="1" vertex="1">
          <mxGeometry x="65" y="1465" width="100" height="60" as="geometry" />
        </mxCell>
        <mxCell id="9YZk1W5Ex02Vy-4h8HQt-3" value="User Data" style="text;html=1;align=center;verticalAlign=middle;resizable=0;points=[];autosize=1;strokeColor=none;fillColor=none;" parent="1" vertex="1">
          <mxGeometry x="75" y="1480" width="80" height="30" as="geometry" />
        </mxCell>
        <mxCell id="9YZk1W5Ex02Vy-4h8HQt-5" value="" style="verticalLabelPosition=bottom;verticalAlign=top;html=1;shape=mxgraph.basic.frame;dx=10;whiteSpace=wrap;" parent="1" vertex="1">
          <mxGeometry x="-80" y="414.5" width="100" height="60" as="geometry" />
        </mxCell>
        <mxCell id="9YZk1W5Ex02Vy-4h8HQt-6" value="Route Report" style="text;html=1;align=center;verticalAlign=middle;resizable=0;points=[];autosize=1;strokeColor=none;fillColor=none;" parent="1" vertex="1">
          <mxGeometry x="-75" y="429.5" width="90" height="30" as="geometry" />
        </mxCell>
        <mxCell id="9YZk1W5Ex02Vy-4h8HQt-7" value="" style="verticalLabelPosition=bottom;verticalAlign=top;html=1;shape=mxgraph.basic.frame;dx=10;whiteSpace=wrap;" parent="1" vertex="1">
          <mxGeometry x="820" y="260" width="100" height="60" as="geometry" />
        </mxCell>
        <mxCell id="9YZk1W5Ex02Vy-4h8HQt-13" value="generates" style="rhombus;whiteSpace=wrap;html=1;" parent="1" vertex="1">
          <mxGeometry x="80" y="1360" width="70" height="60" as="geometry" />
        </mxCell>
        <mxCell id="Enc4yDkgC8fSXYZV9E1_-3" style="edgeStyle=orthogonalEdgeStyle;rounded=0;orthogonalLoop=1;jettySize=auto;html=1;exitX=0.5;exitY=0;exitDx=0;exitDy=0;entryX=0.75;entryY=1;entryDx=0;entryDy=0;" edge="1" parent="1" source="9YZk1W5Ex02Vy-4h8HQt-24" target="9YZk1W5Ex02Vy-4h8HQt-1">
          <mxGeometry relative="1" as="geometry" />
        </mxCell>
        <mxCell id="9YZk1W5Ex02Vy-4h8HQt-24" value="visible to" style="rhombus;whiteSpace=wrap;html=1;" parent="1" vertex="1">
          <mxGeometry x="380" y="411.75" width="60" height="45" as="geometry" />
        </mxCell>
        <mxCell id="9YZk1W5Ex02Vy-4h8HQt-29" style="edgeStyle=orthogonalEdgeStyle;rounded=0;orthogonalLoop=1;jettySize=auto;html=1;exitX=0.5;exitY=1;exitDx=0;exitDy=0;entryX=0.5;entryY=0;entryDx=0;entryDy=0;entryPerimeter=0;" parent="1" source="9YZk1W5Ex02Vy-4h8HQt-13" target="9YZk1W5Ex02Vy-4h8HQt-2" edge="1">
          <mxGeometry relative="1" as="geometry" />
        </mxCell>
        <mxCell id="9YZk1W5Ex02Vy-4h8HQt-30" value="&lt;u&gt;user_id&lt;/u&gt;" style="ellipse;whiteSpace=wrap;html=1;" parent="1" vertex="1">
          <mxGeometry x="200" y="170" width="65" height="30" as="geometry" />
        </mxCell>
        <mxCell id="9YZk1W5Ex02Vy-4h8HQt-31" value="username" style="ellipse;whiteSpace=wrap;html=1;" parent="1" vertex="1">
          <mxGeometry x="265" y="147" width="65" height="30" as="geometry" />
        </mxCell>
        <mxCell id="9YZk1W5Ex02Vy-4h8HQt-33" value="rating" style="ellipse;whiteSpace=wrap;html=1;" parent="1" vertex="1">
          <mxGeometry x="465" y="160" width="65" height="30" as="geometry" />
        </mxCell>
        <mxCell id="9YZk1W5Ex02Vy-4h8HQt-41" value="id" style="ellipse;whiteSpace=wrap;html=1;" parent="1" vertex="1">
          <mxGeometry x="-70" y="1425" width="60" height="30" as="geometry" />
        </mxCell>
        <mxCell id="9YZk1W5Ex02Vy-4h8HQt-42" value="location" style="ellipse;whiteSpace=wrap;html=1;" parent="1" vertex="1">
          <mxGeometry x="-70" y="1460" width="60" height="30" as="geometry" />
        </mxCell>
        <mxCell id="9YZk1W5Ex02Vy-4h8HQt-43" value="speed" style="ellipse;whiteSpace=wrap;html=1;" parent="1" vertex="1">
          <mxGeometry x="-70" y="1500" width="60" height="30" as="geometry" />
        </mxCell>
        <mxCell id="9YZk1W5Ex02Vy-4h8HQt-44" value="timestamp" style="ellipse;whiteSpace=wrap;html=1;" parent="1" vertex="1">
          <mxGeometry x="-80" y="1540" width="70" height="30" as="geometry" />
        </mxCell>
        <mxCell id="9YZk1W5Ex02Vy-4h8HQt-50" value="&lt;u&gt;alert_id&lt;/u&gt;" style="ellipse;whiteSpace=wrap;html=1;" parent="1" vertex="1">
          <mxGeometry x="250" y="575" width="70" height="35" as="geometry" />
        </mxCell>
        <mxCell id="9YZk1W5Ex02Vy-4h8HQt-52" value="name" style="ellipse;whiteSpace=wrap;html=1;" parent="1" vertex="1">
          <mxGeometry x="310" y="610" width="70" height="35" as="geometry" />
        </mxCell>
        <mxCell id="9YZk1W5Ex02Vy-4h8HQt-53" value="location" style="ellipse;whiteSpace=wrap;html=1;" parent="1" vertex="1">
          <mxGeometry x="450" y="575" width="70" height="35" as="geometry" />
        </mxCell>
        <mxCell id="9YZk1W5Ex02Vy-4h8HQt-71" value="&lt;u&gt;report_id&lt;/u&gt;" style="ellipse;whiteSpace=wrap;html=1;" parent="1" vertex="1">
          <mxGeometry x="-185" y="439.5" width="70" height="32" as="geometry" />
        </mxCell>
        <mxCell id="9YZk1W5Ex02Vy-4h8HQt-72" value="location" style="ellipse;whiteSpace=wrap;html=1;" parent="1" vertex="1">
          <mxGeometry x="-171" y="479.5" width="70" height="32" as="geometry" />
        </mxCell>
        <mxCell id="9YZk1W5Ex02Vy-4h8HQt-73" value="type" style="ellipse;whiteSpace=wrap;html=1;" parent="1" vertex="1">
          <mxGeometry x="-104" y="511.5" width="70" height="32" as="geometry" />
        </mxCell>
        <mxCell id="9YZk1W5Ex02Vy-4h8HQt-74" value="description" style="ellipse;whiteSpace=wrap;html=1;" parent="1" vertex="1">
          <mxGeometry x="-20" y="519.5" width="90" height="32" as="geometry" />
        </mxCell>
        <mxCell id="9YZk1W5Ex02Vy-4h8HQt-76" value="&lt;b&gt;user_id&lt;/b&gt;" style="ellipse;whiteSpace=wrap;html=1;" parent="1" vertex="1">
          <mxGeometry x="45" y="464.25" width="70" height="32" as="geometry" />
        </mxCell>
        <mxCell id="9YZk1W5Ex02Vy-4h8HQt-87" value="&lt;u&gt;route_id&lt;/u&gt;" style="ellipse;whiteSpace=wrap;html=1;" parent="1" vertex="1">
          <mxGeometry x="710" y="270" width="70" height="35" as="geometry" />
        </mxCell>
        <mxCell id="9YZk1W5Ex02Vy-4h8HQt-88" value="start_point" style="ellipse;whiteSpace=wrap;html=1;" parent="1" vertex="1">
          <mxGeometry x="725" y="320" width="70" height="35" as="geometry" />
        </mxCell>
        <mxCell id="9YZk1W5Ex02Vy-4h8HQt-89" value="finish_point" style="ellipse;whiteSpace=wrap;html=1;" parent="1" vertex="1">
          <mxGeometry x="780" y="360" width="70" height="35" as="geometry" />
        </mxCell>
        <mxCell id="9YZk1W5Ex02Vy-4h8HQt-92" value="&lt;b&gt;user_id&lt;/b&gt;" style="ellipse;whiteSpace=wrap;html=1;" parent="1" vertex="1">
          <mxGeometry x="947" y="237.5" width="70" height="35" as="geometry" />
        </mxCell>
        <mxCell id="9YZk1W5Ex02Vy-4h8HQt-119" value="user_id" style="ellipse;whiteSpace=wrap;html=1;" parent="1" vertex="1">
          <mxGeometry x="-60" y="1580" width="60" height="30" as="geometry" />
        </mxCell>
        <mxCell id="9YZk1W5Ex02Vy-4h8HQt-121" value="Affects" style="rhombus;whiteSpace=wrap;html=1;" parent="1" vertex="1">
          <mxGeometry x="705" y="438.25" width="110" height="57" as="geometry" />
        </mxCell>
        <mxCell id="9YZk1W5Ex02Vy-4h8HQt-129" value="Route" style="text;html=1;align=center;verticalAlign=middle;resizable=0;points=[];autosize=1;strokeColor=none;fillColor=none;" parent="1" vertex="1">
          <mxGeometry x="840" y="278" width="60" height="30" as="geometry" />
        </mxCell>
        <mxCell id="9YZk1W5Ex02Vy-4h8HQt-130" value="location" style="ellipse;whiteSpace=wrap;html=1;" parent="1" vertex="1">
          <mxGeometry x="340" y="140" width="60" height="30" as="geometry" />
        </mxCell>
        <mxCell id="9YZk1W5Ex02Vy-4h8HQt-131" value="speed" style="ellipse;whiteSpace=wrap;html=1;" parent="1" vertex="1">
          <mxGeometry x="405" y="140" width="60" height="30" as="geometry" />
        </mxCell>
        <mxCell id="9YZk1W5Ex02Vy-4h8HQt-178" style="edgeStyle=orthogonalEdgeStyle;rounded=0;orthogonalLoop=1;jettySize=auto;html=1;exitX=0;exitY=0;exitDx=75;exitDy=0;exitPerimeter=0;entryX=0.5;entryY=1;entryDx=0;entryDy=0;" parent="1" source="9YZk1W5Ex02Vy-4h8HQt-176" target="9YZk1W5Ex02Vy-4h8HQt-24" edge="1">
          <mxGeometry relative="1" as="geometry" />
        </mxCell>
        <mxCell id="9YZk1W5Ex02Vy-4h8HQt-185" style="edgeStyle=orthogonalEdgeStyle;rounded=0;orthogonalLoop=1;jettySize=auto;html=1;exitX=0;exitY=0;exitDx=25;exitDy=0;exitPerimeter=0;entryX=1;entryY=0.5;entryDx=0;entryDy=0;" parent="1" source="9YZk1W5Ex02Vy-4h8HQt-176" target="qk6u6zay9Sdp_NsE3O6V-35" edge="1">
          <mxGeometry relative="1" as="geometry">
            <mxPoint x="300" y="483.25" as="targetPoint" />
          </mxGeometry>
        </mxCell>
        <mxCell id="Enc4yDkgC8fSXYZV9E1_-5" style="edgeStyle=orthogonalEdgeStyle;rounded=0;orthogonalLoop=1;jettySize=auto;html=1;exitX=1;exitY=0.5;exitDx=0;exitDy=0;exitPerimeter=0;entryX=0.5;entryY=1;entryDx=0;entryDy=0;" edge="1" parent="1" source="9YZk1W5Ex02Vy-4h8HQt-176" target="9YZk1W5Ex02Vy-4h8HQt-121">
          <mxGeometry relative="1" as="geometry" />
        </mxCell>
        <mxCell id="9YZk1W5Ex02Vy-4h8HQt-176" value="" style="verticalLabelPosition=bottom;verticalAlign=top;html=1;shape=mxgraph.basic.frame;dx=10;whiteSpace=wrap;" parent="1" vertex="1">
          <mxGeometry x="340" y="519.75" width="100" height="60" as="geometry" />
        </mxCell>
        <mxCell id="9YZk1W5Ex02Vy-4h8HQt-177" value="Alert" style="text;html=1;align=center;verticalAlign=middle;resizable=0;points=[];autosize=1;strokeColor=none;fillColor=none;" parent="1" vertex="1">
          <mxGeometry x="365" y="532.75" width="50" height="30" as="geometry" />
        </mxCell>
        <mxCell id="wiHxEapTJNEE_yELn0tZ-3" style="edgeStyle=orthogonalEdgeStyle;rounded=0;orthogonalLoop=1;jettySize=auto;html=1;exitX=1;exitY=0.5;exitDx=0;exitDy=0;entryX=0.5;entryY=1;entryDx=0;entryDy=0;entryPerimeter=0;" parent="1" source="9YZk1W5Ex02Vy-4h8HQt-121" target="9YZk1W5Ex02Vy-4h8HQt-7" edge="1">
          <mxGeometry relative="1" as="geometry" />
        </mxCell>
        <mxCell id="0ilPhX3dVnPTbfWXhvVX-20" value="reports" style="shape=rhombus;double=1;perimeter=rhombusPerimeter;whiteSpace=wrap;html=1;align=center;" parent="1" vertex="1">
          <mxGeometry x="25" y="312.5" width="110" height="58" as="geometry" />
        </mxCell>
        <mxCell id="0ilPhX3dVnPTbfWXhvVX-28" value="" style="endArrow=none;html=1;rounded=0;exitX=0.5;exitY=1;exitDx=0;exitDy=0;entryX=0;entryY=0.25;entryDx=0;entryDy=0;" parent="1" source="9YZk1W5Ex02Vy-4h8HQt-30" target="9YZk1W5Ex02Vy-4h8HQt-1" edge="1">
          <mxGeometry relative="1" as="geometry">
            <mxPoint x="280" y="210" as="sourcePoint" />
            <mxPoint x="440" y="210" as="targetPoint" />
          </mxGeometry>
        </mxCell>
        <mxCell id="0ilPhX3dVnPTbfWXhvVX-30" value="" style="endArrow=none;html=1;rounded=0;exitX=0.5;exitY=1;exitDx=0;exitDy=0;entryX=0.5;entryY=0;entryDx=0;entryDy=0;" parent="1" source="9YZk1W5Ex02Vy-4h8HQt-130" target="9YZk1W5Ex02Vy-4h8HQt-1" edge="1">
          <mxGeometry relative="1" as="geometry">
            <mxPoint x="338" y="177" as="sourcePoint" />
            <mxPoint x="400" y="234" as="targetPoint" />
          </mxGeometry>
        </mxCell>
        <mxCell id="0ilPhX3dVnPTbfWXhvVX-31" value="" style="endArrow=none;html=1;rounded=0;exitX=0.5;exitY=1;exitDx=0;exitDy=0;entryX=0.75;entryY=0;entryDx=0;entryDy=0;" parent="1" source="9YZk1W5Ex02Vy-4h8HQt-131" target="9YZk1W5Ex02Vy-4h8HQt-1" edge="1">
          <mxGeometry relative="1" as="geometry">
            <mxPoint x="400" y="183" as="sourcePoint" />
            <mxPoint x="462" y="240" as="targetPoint" />
          </mxGeometry>
        </mxCell>
        <mxCell id="0ilPhX3dVnPTbfWXhvVX-32" value="" style="endArrow=none;html=1;rounded=0;exitX=0;exitY=1;exitDx=0;exitDy=0;entryX=1;entryY=0;entryDx=0;entryDy=0;" parent="1" source="9YZk1W5Ex02Vy-4h8HQt-33" target="9YZk1W5Ex02Vy-4h8HQt-1" edge="1">
          <mxGeometry relative="1" as="geometry">
            <mxPoint x="440" y="180" as="sourcePoint" />
            <mxPoint x="502" y="237" as="targetPoint" />
          </mxGeometry>
        </mxCell>
        <mxCell id="0ilPhX3dVnPTbfWXhvVX-33" value="" style="endArrow=none;html=1;rounded=0;entryX=0.25;entryY=0;entryDx=0;entryDy=0;exitX=0.5;exitY=1;exitDx=0;exitDy=0;" parent="1" source="9YZk1W5Ex02Vy-4h8HQt-31" target="9YZk1W5Ex02Vy-4h8HQt-1" edge="1">
          <mxGeometry relative="1" as="geometry">
            <mxPoint x="315" y="178" as="sourcePoint" />
            <mxPoint x="355" y="238" as="targetPoint" />
          </mxGeometry>
        </mxCell>
        <mxCell id="0ilPhX3dVnPTbfWXhvVX-35" value="" style="endArrow=none;html=1;rounded=0;exitX=0.5;exitY=0;exitDx=0;exitDy=0;entryX=0;entryY=0;entryDx=25;entryDy=60;entryPerimeter=0;" parent="1" source="9YZk1W5Ex02Vy-4h8HQt-73" target="9YZk1W5Ex02Vy-4h8HQt-5" edge="1">
          <mxGeometry relative="1" as="geometry">
            <mxPoint x="-150" y="567.75" as="sourcePoint" />
            <mxPoint x="-88" y="624.75" as="targetPoint" />
          </mxGeometry>
        </mxCell>
        <mxCell id="0ilPhX3dVnPTbfWXhvVX-36" value="" style="endArrow=none;html=1;rounded=0;exitX=1;exitY=0.5;exitDx=0;exitDy=0;entryX=0;entryY=1;entryDx=0;entryDy=0;entryPerimeter=0;" parent="1" source="9YZk1W5Ex02Vy-4h8HQt-72" target="9YZk1W5Ex02Vy-4h8HQt-5" edge="1">
          <mxGeometry relative="1" as="geometry">
            <mxPoint x="-120" y="567.75" as="sourcePoint" />
            <mxPoint x="-58" y="624.75" as="targetPoint" />
          </mxGeometry>
        </mxCell>
        <mxCell id="0ilPhX3dVnPTbfWXhvVX-37" value="" style="endArrow=none;html=1;rounded=0;exitX=1;exitY=0.5;exitDx=0;exitDy=0;entryX=0;entryY=0;entryDx=0;entryDy=45;entryPerimeter=0;" parent="1" source="9YZk1W5Ex02Vy-4h8HQt-71" target="9YZk1W5Ex02Vy-4h8HQt-5" edge="1">
          <mxGeometry relative="1" as="geometry">
            <mxPoint x="-163" y="589.5" as="sourcePoint" />
            <mxPoint x="-101" y="646.5" as="targetPoint" />
          </mxGeometry>
        </mxCell>
        <mxCell id="0ilPhX3dVnPTbfWXhvVX-38" value="" style="endArrow=none;html=1;rounded=0;exitX=0;exitY=0;exitDx=100;exitDy=45;entryX=0;entryY=0;entryDx=0;entryDy=0;exitPerimeter=0;" parent="1" source="9YZk1W5Ex02Vy-4h8HQt-5" target="9YZk1W5Ex02Vy-4h8HQt-76" edge="1">
          <mxGeometry relative="1" as="geometry">
            <mxPoint x="-120" y="604.5" as="sourcePoint" />
            <mxPoint x="-58" y="661.5" as="targetPoint" />
          </mxGeometry>
        </mxCell>
        <mxCell id="0ilPhX3dVnPTbfWXhvVX-39" value="" style="endArrow=none;html=1;rounded=0;exitX=0;exitY=0;exitDx=75;exitDy=60;entryX=0.5;entryY=0;entryDx=0;entryDy=0;exitPerimeter=0;" parent="1" source="9YZk1W5Ex02Vy-4h8HQt-5" target="9YZk1W5Ex02Vy-4h8HQt-74" edge="1">
          <mxGeometry relative="1" as="geometry">
            <mxPoint x="-97.5" y="594.5" as="sourcePoint" />
            <mxPoint x="-35.5" y="651.5" as="targetPoint" />
          </mxGeometry>
        </mxCell>
        <mxCell id="0ilPhX3dVnPTbfWXhvVX-40" value="" style="endArrow=none;html=1;rounded=0;exitX=0.5;exitY=0;exitDx=0;exitDy=0;" parent="1" source="9YZk1W5Ex02Vy-4h8HQt-52" edge="1">
          <mxGeometry relative="1" as="geometry">
            <mxPoint x="18" y="660" as="sourcePoint" />
            <mxPoint x="390" y="580" as="targetPoint" />
          </mxGeometry>
        </mxCell>
        <mxCell id="0ilPhX3dVnPTbfWXhvVX-41" value="" style="endArrow=none;html=1;rounded=0;exitX=0;exitY=0;exitDx=100;exitDy=45;entryX=0.5;entryY=0;entryDx=0;entryDy=0;exitPerimeter=0;" parent="1" source="9YZk1W5Ex02Vy-4h8HQt-176" target="9YZk1W5Ex02Vy-4h8HQt-53" edge="1">
          <mxGeometry relative="1" as="geometry">
            <mxPoint x="-4" y="683.25" as="sourcePoint" />
            <mxPoint x="58" y="740.25" as="targetPoint" />
          </mxGeometry>
        </mxCell>
        <mxCell id="0ilPhX3dVnPTbfWXhvVX-43" value="" style="endArrow=none;html=1;rounded=0;exitX=1;exitY=0;exitDx=0;exitDy=0;entryX=0;entryY=0;entryDx=0;entryDy=45;entryPerimeter=0;" parent="1" source="9YZk1W5Ex02Vy-4h8HQt-50" target="9YZk1W5Ex02Vy-4h8HQt-176" edge="1">
          <mxGeometry relative="1" as="geometry">
            <mxPoint x="30" y="703.25" as="sourcePoint" />
            <mxPoint x="92" y="760.25" as="targetPoint" />
          </mxGeometry>
        </mxCell>
        <mxCell id="0ilPhX3dVnPTbfWXhvVX-50" value="" style="endArrow=none;html=1;rounded=0;exitX=0;exitY=0;exitDx=75;exitDy=60;entryX=0;entryY=0;entryDx=0;entryDy=0;exitPerimeter=0;" parent="1" source="9YZk1W5Ex02Vy-4h8HQt-7" target="0ilPhX3dVnPTbfWXhvVX-59" edge="1">
          <mxGeometry relative="1" as="geometry">
            <mxPoint x="910" y="402.75" as="sourcePoint" />
            <mxPoint x="939.8952216699272" y="365.3062505253931" as="targetPoint" />
          </mxGeometry>
        </mxCell>
        <mxCell id="0ilPhX3dVnPTbfWXhvVX-51" value="" style="endArrow=none;html=1;rounded=0;exitX=1;exitY=0;exitDx=0;exitDy=0;entryX=0;entryY=0;entryDx=0;entryDy=45;entryPerimeter=0;" parent="1" source="9YZk1W5Ex02Vy-4h8HQt-88" target="9YZk1W5Ex02Vy-4h8HQt-7" edge="1">
          <mxGeometry relative="1" as="geometry">
            <mxPoint x="900" y="426.25" as="sourcePoint" />
            <mxPoint x="962" y="483.25" as="targetPoint" />
          </mxGeometry>
        </mxCell>
        <mxCell id="0ilPhX3dVnPTbfWXhvVX-52" value="" style="endArrow=none;html=1;rounded=0;exitX=1;exitY=0.5;exitDx=0;exitDy=0;entryX=0;entryY=0.5;entryDx=0;entryDy=0;entryPerimeter=0;" parent="1" source="9YZk1W5Ex02Vy-4h8HQt-87" target="9YZk1W5Ex02Vy-4h8HQt-7" edge="1">
          <mxGeometry relative="1" as="geometry">
            <mxPoint x="920" y="427.75" as="sourcePoint" />
            <mxPoint x="982" y="484.75" as="targetPoint" />
          </mxGeometry>
        </mxCell>
        <mxCell id="0ilPhX3dVnPTbfWXhvVX-53" value="" style="endArrow=none;html=1;rounded=0;exitX=1;exitY=0.5;exitDx=0;exitDy=0;entryX=0.245;entryY=0.18;entryDx=0;entryDy=0;exitPerimeter=0;entryPerimeter=0;" parent="1" source="9YZk1W5Ex02Vy-4h8HQt-7" target="0ilPhX3dVnPTbfWXhvVX-60" edge="1">
          <mxGeometry relative="1" as="geometry">
            <mxPoint x="947" y="422.5" as="sourcePoint" />
            <mxPoint x="956.8952216699272" y="320.30625052539335" as="targetPoint" />
          </mxGeometry>
        </mxCell>
        <mxCell id="0ilPhX3dVnPTbfWXhvVX-55" value="" style="endArrow=none;html=1;rounded=0;exitX=0;exitY=0;exitDx=100;exitDy=15;entryX=0;entryY=0.5;entryDx=0;entryDy=0;exitPerimeter=0;" parent="1" source="9YZk1W5Ex02Vy-4h8HQt-7" target="9YZk1W5Ex02Vy-4h8HQt-92" edge="1">
          <mxGeometry relative="1" as="geometry">
            <mxPoint x="920" y="200" as="sourcePoint" />
            <mxPoint x="982" y="257" as="targetPoint" />
          </mxGeometry>
        </mxCell>
        <mxCell id="0ilPhX3dVnPTbfWXhvVX-59" value="distance" style="ellipse;whiteSpace=wrap;html=1;align=center;dashed=1;" parent="1" vertex="1">
          <mxGeometry x="932" y="312.5" width="88" height="35" as="geometry" />
        </mxCell>
        <mxCell id="0ilPhX3dVnPTbfWXhvVX-60" value="arrival time" style="ellipse;whiteSpace=wrap;html=1;align=center;dashed=1;" parent="1" vertex="1">
          <mxGeometry x="975" y="277.5" width="88" height="35" as="geometry" />
        </mxCell>
        <mxCell id="0ilPhX3dVnPTbfWXhvVX-61" value="N" style="text;html=1;align=center;verticalAlign=middle;resizable=0;points=[];autosize=1;strokeColor=none;fillColor=none;" parent="1" vertex="1">
          <mxGeometry x="-30" y="384.5" width="30" height="30" as="geometry" />
        </mxCell>
        <mxCell id="0ilPhX3dVnPTbfWXhvVX-62" value="1" style="text;html=1;align=center;verticalAlign=middle;resizable=0;points=[];autosize=1;strokeColor=none;fillColor=none;" parent="1" vertex="1">
          <mxGeometry x="280" y="240" width="30" height="30" as="geometry" />
        </mxCell>
        <mxCell id="0ilPhX3dVnPTbfWXhvVX-66" value="M" style="text;html=1;align=center;verticalAlign=middle;resizable=0;points=[];autosize=1;strokeColor=none;fillColor=none;" parent="1" vertex="1">
          <mxGeometry x="445" y="230" width="30" height="30" as="geometry" />
        </mxCell>
        <mxCell id="0ilPhX3dVnPTbfWXhvVX-67" value="N" style="text;html=1;align=center;verticalAlign=middle;resizable=0;points=[];autosize=1;strokeColor=none;fillColor=none;" parent="1" vertex="1">
          <mxGeometry x="870" y="227.5" width="30" height="30" as="geometry" />
        </mxCell>
        <mxCell id="0ilPhX3dVnPTbfWXhvVX-69" style="edgeStyle=orthogonalEdgeStyle;rounded=0;orthogonalLoop=1;jettySize=auto;html=1;exitX=1;exitY=0.5;exitDx=0;exitDy=0;entryX=0.5;entryY=0;entryDx=0;entryDy=0;entryPerimeter=0;" parent="1" source="qk6u6zay9Sdp_NsE3O6V-16" target="9YZk1W5Ex02Vy-4h8HQt-7" edge="1">
          <mxGeometry relative="1" as="geometry">
            <mxPoint x="655" y="232.5" as="sourcePoint" />
          </mxGeometry>
        </mxCell>
        <mxCell id="0ilPhX3dVnPTbfWXhvVX-71" style="edgeStyle=orthogonalEdgeStyle;rounded=0;orthogonalLoop=1;jettySize=auto;html=1;exitX=0;exitY=0.5;exitDx=0;exitDy=0;entryX=0.5;entryY=0;entryDx=0;entryDy=0;entryPerimeter=0;" parent="1" source="0ilPhX3dVnPTbfWXhvVX-20" target="9YZk1W5Ex02Vy-4h8HQt-5" edge="1">
          <mxGeometry relative="1" as="geometry" />
        </mxCell>
        <mxCell id="0ilPhX3dVnPTbfWXhvVX-74" value="description" style="ellipse;whiteSpace=wrap;html=1;" parent="1" vertex="1">
          <mxGeometry x="400" y="610" width="70" height="35" as="geometry" />
        </mxCell>
        <mxCell id="0ilPhX3dVnPTbfWXhvVX-75" value="" style="endArrow=none;html=1;rounded=0;exitX=0;exitY=0;exitDx=0;exitDy=0;entryX=0;entryY=0;entryDx=75;entryDy=60;entryPerimeter=0;" parent="1" source="0ilPhX3dVnPTbfWXhvVX-74" target="9YZk1W5Ex02Vy-4h8HQt-176" edge="1">
          <mxGeometry relative="1" as="geometry">
            <mxPoint x="430" y="637" as="sourcePoint" />
            <mxPoint x="425" y="590" as="targetPoint" />
          </mxGeometry>
        </mxCell>
        <mxCell id="qk6u6zay9Sdp_NsE3O6V-1" value="N" style="text;html=1;align=center;verticalAlign=middle;resizable=0;points=[];autosize=1;strokeColor=none;fillColor=none;" parent="1" vertex="1">
          <mxGeometry x="25" y="399.25" width="30" height="30" as="geometry" />
        </mxCell>
        <mxCell id="qk6u6zay9Sdp_NsE3O6V-3" value="1" style="text;html=1;align=center;verticalAlign=middle;resizable=0;points=[];autosize=1;strokeColor=none;fillColor=none;" parent="1" vertex="1">
          <mxGeometry x="432.5" y="511.75" width="30" height="30" as="geometry" />
        </mxCell>
        <mxCell id="qk6u6zay9Sdp_NsE3O6V-4" value="1" style="text;html=1;align=center;verticalAlign=middle;resizable=0;points=[];autosize=1;strokeColor=none;fillColor=none;" parent="1" vertex="1">
          <mxGeometry x="340" y="495" width="30" height="30" as="geometry" />
        </mxCell>
        <mxCell id="qk6u6zay9Sdp_NsE3O6V-8" value="&lt;u&gt;destination_id&lt;/u&gt;" style="ellipse;whiteSpace=wrap;html=1;" parent="1" vertex="1">
          <mxGeometry x="810" y="605" width="90" height="35" as="geometry" />
        </mxCell>
        <mxCell id="qk6u6zay9Sdp_NsE3O6V-9" value="name" style="ellipse;whiteSpace=wrap;html=1;" parent="1" vertex="1">
          <mxGeometry x="920" y="609.25" width="70" height="35" as="geometry" />
        </mxCell>
        <mxCell id="qk6u6zay9Sdp_NsE3O6V-10" value="location" style="ellipse;whiteSpace=wrap;html=1;" parent="1" vertex="1">
          <mxGeometry x="1015" y="605" width="70" height="35" as="geometry" />
        </mxCell>
        <mxCell id="qk6u6zay9Sdp_NsE3O6V-12" value="" style="endArrow=none;html=1;rounded=0;entryX=0;entryY=0;entryDx=0;entryDy=0;exitX=0.75;exitY=1;exitDx=0;exitDy=0;" parent="1" source="qk6u6zay9Sdp_NsE3O6V-26" target="qk6u6zay9Sdp_NsE3O6V-10" edge="1">
          <mxGeometry relative="1" as="geometry">
            <mxPoint x="1045" y="587.25" as="sourcePoint" />
            <mxPoint x="1077.5" y="554.25" as="targetPoint" />
          </mxGeometry>
        </mxCell>
        <mxCell id="qk6u6zay9Sdp_NsE3O6V-13" value="" style="endArrow=none;html=1;rounded=0;entryX=0.5;entryY=0;entryDx=0;entryDy=0;exitX=0.5;exitY=1;exitDx=0;exitDy=0;" parent="1" source="qk6u6zay9Sdp_NsE3O6V-26" target="qk6u6zay9Sdp_NsE3O6V-9" edge="1">
          <mxGeometry relative="1" as="geometry">
            <mxPoint x="958.4000000000001" y="581.8900000000001" as="sourcePoint" />
            <mxPoint x="1035" y="620.25" as="targetPoint" />
          </mxGeometry>
        </mxCell>
        <mxCell id="qk6u6zay9Sdp_NsE3O6V-14" value="" style="endArrow=none;html=1;rounded=0;exitX=0.25;exitY=1;exitDx=0;exitDy=0;entryX=0.5;entryY=0;entryDx=0;entryDy=0;" parent="1" source="qk6u6zay9Sdp_NsE3O6V-26" target="qk6u6zay9Sdp_NsE3O6V-8" edge="1">
          <mxGeometry relative="1" as="geometry">
            <mxPoint x="928.8000000000002" y="581.8900000000001" as="sourcePoint" />
            <mxPoint x="1045" y="630.25" as="targetPoint" />
          </mxGeometry>
        </mxCell>
        <mxCell id="qk6u6zay9Sdp_NsE3O6V-15" value="indicates" style="shape=rhombus;double=1;perimeter=rhombusPerimeter;whiteSpace=wrap;html=1;align=center;" parent="1" vertex="1">
          <mxGeometry x="905" y="411.75" width="110" height="58" as="geometry" />
        </mxCell>
        <mxCell id="qk6u6zay9Sdp_NsE3O6V-16" value="generates" style="shape=rhombus;double=1;perimeter=rhombusPerimeter;whiteSpace=wrap;html=1;align=center;" parent="1" vertex="1">
          <mxGeometry x="586.5" y="190" width="110" height="58" as="geometry" />
        </mxCell>
        <mxCell id="qk6u6zay9Sdp_NsE3O6V-18" style="edgeStyle=orthogonalEdgeStyle;rounded=0;orthogonalLoop=1;jettySize=auto;html=1;exitX=0;exitY=0;exitDx=0;exitDy=0;entryX=0.6;entryY=1;entryDx=0;entryDy=0;entryPerimeter=0;" parent="1" source="qk6u6zay9Sdp_NsE3O6V-15" target="9YZk1W5Ex02Vy-4h8HQt-7" edge="1">
          <mxGeometry relative="1" as="geometry" />
        </mxCell>
        <mxCell id="qk6u6zay9Sdp_NsE3O6V-19" value="M" style="text;html=1;align=center;verticalAlign=middle;resizable=0;points=[];autosize=1;strokeColor=none;fillColor=none;" parent="1" vertex="1">
          <mxGeometry x="875" y="330" width="30" height="30" as="geometry" />
        </mxCell>
        <mxCell id="qk6u6zay9Sdp_NsE3O6V-20" value="N" style="text;html=1;align=center;verticalAlign=middle;resizable=0;points=[];autosize=1;strokeColor=none;fillColor=none;" parent="1" vertex="1">
          <mxGeometry x="930" y="498.25" width="30" height="30" as="geometry" />
        </mxCell>
        <mxCell id="qk6u6zay9Sdp_NsE3O6V-28" style="edgeStyle=orthogonalEdgeStyle;rounded=0;orthogonalLoop=1;jettySize=auto;html=1;exitX=0.5;exitY=0;exitDx=0;exitDy=0;entryX=0.5;entryY=1;entryDx=0;entryDy=0;" parent="1" source="qk6u6zay9Sdp_NsE3O6V-26" target="qk6u6zay9Sdp_NsE3O6V-15" edge="1">
          <mxGeometry relative="1" as="geometry" />
        </mxCell>
        <mxCell id="qk6u6zay9Sdp_NsE3O6V-26" value="Destination" style="rounded=0;whiteSpace=wrap;html=1;" parent="1" vertex="1">
          <mxGeometry x="900" y="524" width="120" height="60" as="geometry" />
        </mxCell>
        <mxCell id="qk6u6zay9Sdp_NsE3O6V-35" value="collects" style="shape=rhombus;double=1;perimeter=rhombusPerimeter;whiteSpace=wrap;html=1;align=center;" parent="1" vertex="1">
          <mxGeometry x="200" y="457.25" width="100" height="48" as="geometry" />
        </mxCell>
        <mxCell id="qk6u6zay9Sdp_NsE3O6V-37" value="N" style="text;html=1;align=center;verticalAlign=middle;resizable=0;points=[];autosize=1;strokeColor=none;fillColor=none;" parent="1" vertex="1">
          <mxGeometry x="410" y="498.25" width="30" height="30" as="geometry" />
        </mxCell>
        <mxCell id="qk6u6zay9Sdp_NsE3O6V-38" value="M" style="text;html=1;align=center;verticalAlign=middle;resizable=0;points=[];autosize=1;strokeColor=none;fillColor=none;" parent="1" vertex="1">
          <mxGeometry x="384" y="308" width="30" height="30" as="geometry" />
        </mxCell>
        <mxCell id="Enc4yDkgC8fSXYZV9E1_-1" style="edgeStyle=orthogonalEdgeStyle;rounded=0;orthogonalLoop=1;jettySize=auto;html=1;exitX=0;exitY=0.5;exitDx=0;exitDy=0;entryX=0;entryY=0;entryDx=100;entryDy=15;entryPerimeter=0;" edge="1" parent="1" source="qk6u6zay9Sdp_NsE3O6V-35" target="9YZk1W5Ex02Vy-4h8HQt-5">
          <mxGeometry relative="1" as="geometry">
            <Array as="points">
              <mxPoint x="200" y="480" />
              <mxPoint x="160" y="480" />
              <mxPoint x="160" y="430" />
            </Array>
          </mxGeometry>
        </mxCell>
        <mxCell id="Enc4yDkgC8fSXYZV9E1_-6" value="" style="endArrow=none;html=1;rounded=0;exitX=0.5;exitY=0;exitDx=0;exitDy=0;entryX=0;entryY=0;entryDx=25;entryDy=60;entryPerimeter=0;" edge="1" parent="1" source="9YZk1W5Ex02Vy-4h8HQt-89" target="9YZk1W5Ex02Vy-4h8HQt-7">
          <mxGeometry relative="1" as="geometry">
            <mxPoint x="795" y="335" as="sourcePoint" />
            <mxPoint x="830" y="315" as="targetPoint" />
          </mxGeometry>
        </mxCell>
      </root>
    </mxGraphModel>
  </diagram>
</mxfile>
